<?xml version="1.0" standalone="no"?>
<!DOCTYPE svg PUBLIC "-//W3C//DTD SVG 20010904//EN"
 "http://www.w3.org/TR/2001/REC-SVG-20010904/DTD/svg10.dtd">
<svg version="1.0" xmlns="http://www.w3.org/2000/svg"
 width="200" height="auto" viewBox="0 0 350.000000 95.000000"
 preserveAspectRatio="xMidYMid meet">

<g transform="translate(0.000000,95.000000) scale(0.100000,-0.100000)"
fill="#000000" stroke="none">
<path d="M30 475 l0 -475 1735 0 1735 0 0 475 0 475 -1735 0 -1735 0 0 -475z
m3450 -5 l0 -450 -1715 0 -1715 0 0 450 0 450 1715 0 1715 0 0 -450z"/>
<path d="M120 470 l0 -390 825 0 825 0 0 390 0 390 -825 0 -825 0 0 -390z
m249 244 c49 -10 37 -26 -14 -18 l-45 6 0 -30 c0 -28 4 -32 35 -38 50 -9 45
-28 -5 -20 l-40 6 0 -34 c0 -33 -13 -55 -23 -39 -3 5 0 45 6 91 12 90 12 90
86 76z m171 -66 c6 -24 15 -59 21 -78 5 -19 9 -41 9 -47 0 -20 -17 -15 -23 6
-3 13 -17 21 -47 26 -36 6 -44 4 -57 -14 -8 -12 -18 -19 -23 -16 -12 7 81 165
97 165 7 0 17 -19 23 -42z m174 -35 c-4 -32 -11 -68 -15 -81 -10 -25 -44 -42
-71 -34 -29 7 -21 20 14 24 34 3 36 7 53 111 10 62 27 44 19 -20z m174 -57
c13 -49 20 -91 16 -95 -4 -3 -9 0 -11 7 -15 41 -92 59 -111 26 -5 -9 -14 -15
-20 -13 -14 5 79 170 93 166 6 -2 20 -43 33 -91z m209 38 c19 -27 16 -52 -11
-77 -22 -20 -23 -25 -10 -47 16 -30 17 -40 4 -40 -5 0 -19 18 -30 40 -26 50
-60 56 -60 10 0 -19 -5 -30 -13 -30 -11 0 -12 12 -6 58 20 131 13 120 66 112
27 -4 52 -15 60 -26z m151 -4 c36 0 72 -43 72 -85 0 -27 -8 -44 -29 -66 -30
-30 -46 -34 -101 -23 l-32 7 7 61 c12 109 15 118 39 112 12 -3 31 -6 44 -6z
m277 -55 c19 -18 25 -35 25 -65 0 -56 -34 -90 -90 -90 -90 0 -124 111 -51 167
28 22 89 16 116 -12z"/>
<path d="M487 619 c-20 -36 -21 -34 16 -43 29 -7 33 4 21 52 -8 30 -16 28 -37
-9z"/>
<path d="M825 570 c-20 -39 -20 -40 16 -40 28 0 31 3 25 23 -3 12 -6 28 -6 35
0 22 -19 13 -35 -18z"/>
<path d="M1006 584 c-16 -40 -7 -54 33 -54 26 0 41 5 45 16 8 21 8 20 -10 38
-20 21 -60 21 -68 0z"/>
<path d="M1195 533 c-4 -21 -9 -50 -11 -65 -5 -23 -1 -27 25 -33 48 -10 91 24
91 74 0 25 -45 61 -76 61 -19 0 -24 -7 -29 -37z"/>
<path d="M1415 515 c-30 -30 -31 -54 -4 -89 39 -49 119 -22 119 42 0 33 -8 45
-37 61 -33 17 -51 14 -78 -14z"/>
<path d="M2885 601 c-54 -24 -80 -72 -73 -136 14 -118 162 -161 246 -71 59 65
39 170 -41 207 -52 23 -81 23 -132 0z m106 -69 c25 -21 30 -71 9 -96 -16 -21
-74 -20 -95 0 -25 25 -16 85 15 101 34 17 44 16 71 -5z"/>
<path d="M1920 575 c0 -34 1 -35 40 -35 l40 0 0 -95 0 -95 35 0 35 0 0 95 0
95 40 0 c39 0 40 1 40 35 l0 35 -115 0 -115 0 0 -35z"/>
<path d="M2218 487 c-27 -68 -48 -126 -48 -130 0 -4 17 -7 39 -7 30 0 40 4 44
20 4 16 14 20 50 20 37 0 47 -4 52 -20 5 -16 15 -20 46 -20 47 0 48 -13 -14
145 l-44 110 -39 3 -39 3 -47 -124z m111 -39 c1 -5 -10 -8 -24 -8 -28 0 -30 4
-13 51 l11 33 13 -34 c7 -19 13 -38 13 -42z"/>
<path d="M2470 480 l0 -130 40 0 40 0 0 130 0 130 -40 0 -40 0 0 -130z"/>
<path d="M2610 480 l0 -130 90 0 90 0 0 35 0 35 -55 0 -55 0 0 95 0 95 -35 0
-35 0 0 -130z"/>
<path d="M3140 480 l0 -130 35 0 c33 0 35 2 35 35 0 25 5 35 15 35 9 0 23 -16
32 -35 15 -32 20 -35 60 -35 l43 0 -22 45 c-21 44 -21 45 -3 65 31 34 26 96
-8 126 -25 21 -38 24 -108 24 l-79 0 0 -130z m138 43 c3 -17 -3 -26 -23 -33
-40 -15 -45 -13 -45 26 0 34 1 35 33 32 24 -2 33 -8 35 -25z"/>
</g>
</svg>
